<svg width="12" height="13" viewBox="0 0 12 13" fill="none" xmlns="http://www.w3.org/2000/svg">
<path d="M6.25819 2.23219C7.66619 2.23219 8.85019 2.8722 9.21819 4.2482H11.3782C11.0422 1.86419 8.97819 0.312195 6.30619 0.312195C2.78619 0.312195 0.466187 2.84019 0.466187 6.3922C0.466187 9.9922 2.75419 12.3762 6.03419 12.3762C7.61819 12.3762 8.94619 11.7522 9.58619 10.8562L9.71419 12.2002H11.4422V5.6242H6.00219V7.4322H9.53819V7.4802C9.53819 9.3522 8.30619 10.4722 6.27419 10.4722C4.11419 10.4722 2.61019 9.0482 2.61019 6.4402C2.61019 3.9122 3.93819 2.23219 6.25819 2.23219Z" fill="#FCFCFC"/>
</svg>
